<?xml version="1.0" encoding="UTF-8" standalone="no"?><!DOCTYPE svg PUBLIC "-//W3C//DTD SVG 1.1//EN" "http://www.w3.org/Graphics/SVG/1.1/DTD/svg11.dtd"><svg width="100%" height="100%" viewBox="0 0 3475 1042" version="1.1" xmlns="http://www.w3.org/2000/svg" xmlns:xlink="http://www.w3.org/1999/xlink" xml:space="preserve" xmlns:serif="http://www.serif.com/" style="fill-rule:evenodd;clip-rule:evenodd;stroke-linejoin:round;stroke-miterlimit:2;"><path d="M108.079,149.313c0,-0.001 151.871,-108.596 273.654,-105.93c75.98,1.667 243.642,26.484 307.2,135.946c63.554,109.459 70.029,255.113 -56.5,321.321c-38.8,20.304 68.859,24.717 107.696,98.867c38.842,74.154 51.2,286.012 -121.817,361.929c-173.02,75.917 -250.704,56.496 -326.62,19.421c-75.917,-37.075 -185.375,-134.18 -185.375,-134.18l1.762,-697.375Z" style="fill:#132946;"/><path d="M296.992,246.417l-0,270.121l121.816,45.904c0,-0 86.513,10.591 91.809,-93.571c5.295,-104.167 -42.846,-135.946 -75.271,-153.6c-32.425,-17.654 -138.354,-68.854 -138.354,-68.854Z" style="fill:#23497b;"/><path d="M296.992,618.938l-0,363.662c-0,0 52.379,30.492 107.012,30.929c32.625,0.259 81.588,-0.121 107.013,-20.304c32.158,-25.525 55.133,-146.538 -0,-222.454c-55.134,-75.917 -152.234,-125.35 -152.234,-125.35l-61.791,-26.483Z" style="fill:#88a553;"/><text x="786.25px" y="633.375px" style="font-family:'SegoeUI-Bold', 'Segoe UI', sans-serif;font-weight:700;font-size:540.292px;fill:#0e2a47;">IMEnough</text><g><g transform="matrix(1,0,0,0.984441,1.13687e-13,15.0392)"><g transform="matrix(307.137,0,0,307.137,3383.01,966.613)"></g><text x="797.389px" y="966.613px" style="font-family:'SegoeUI', 'Segoe UI', sans-serif;font-size:307.137px;fill:#8cb54a;">Smart<tspan x="1592.23px " y="966.613px "> </tspan>BIM Support</text></g></g></svg>