<?xml version="1.0" encoding="UTF-8" standalone="no"?><!DOCTYPE svg PUBLIC "-//W3C//DTD SVG 1.1//EN" "http://www.w3.org/Graphics/SVG/1.1/DTD/svg11.dtd"><svg width="100%" height="100%" viewBox="0 0 250 250" version="1.1" xmlns="http://www.w3.org/2000/svg" xmlns:xlink="http://www.w3.org/1999/xlink" xml:space="preserve" xmlns:serif="http://www.serif.com/" style="fill-rule:evenodd;clip-rule:evenodd;stroke-linejoin:round;stroke-miterlimit:2;"><path d="M42.939,35.835c0,0 36.449,-26.063 65.677,-25.423c18.235,0.4 58.474,6.356 73.728,32.627c15.253,26.27 16.807,61.227 -13.56,77.117c-9.312,4.873 16.526,5.932 25.847,23.728c9.322,17.797 12.288,68.643 -29.236,86.863c-41.525,18.22 -60.169,13.559 -78.389,4.661c-18.22,-8.898 -44.49,-32.203 -44.49,-32.203l0.423,-167.37Z" style="fill:#132946;"/><path d="M88.278,59.14l-0,64.829l29.236,11.017c0,0 20.763,2.542 22.034,-22.457c1.271,-25 -10.283,-32.627 -18.065,-36.864c-7.782,-4.237 -33.205,-16.525 -33.205,-16.525Z" style="fill:#23497b;"/><path d="M88.278,148.545l-0,87.279c-0,0 12.571,7.318 25.683,7.423c7.83,0.062 19.581,-0.029 25.683,-4.873c7.718,-6.126 13.232,-35.169 0,-53.389c-13.232,-18.22 -36.536,-30.084 -36.536,-30.084l-14.83,-6.356Z" style="fill:#88a553;"/></svg>